<?xml version="1.0" encoding="UTF-8"?>
<svg width="20px" height="14px" viewBox="0 0 20 14" version="1.1" xmlns="http://www.w3.org/2000/svg" xmlns:xlink="http://www.w3.org/1999/xlink">
    <title>2358F1D4-4F06-48AD-AA9D-11C625DB5F68</title>
    <g id="1" stroke="none" stroke-width="1" fill="none" fill-rule="evenodd">
        <g id="Search-Page-02" transform="translate(-399.000000, -577.000000)" fill="#08C25E" fill-rule="nonzero">
            <g id="Group-2" transform="translate(386.000000, 556.000000)">
                <g id="barcode" transform="translate(13.000000, 21.000000)">
                    <path d="M2,13.5 C2,13.7761424 1.77614237,14 1.5,14 L0.5,14 C0.223857625,14 0,13.7761424 0,13.5 L0,0.5 C0,0.223857625 0.223857625,0 0.5,0 L1.5,0 C1.77614237,0 2,0.223857625 2,0.5 L2,13.5 Z M19.5,0 L18.5,0 C18.2238576,0 18,0.223857625 18,0.5 L18,13.5 C18,13.7761424 18.2238576,14 18.5,14 L19.5,14 C19.7761424,14 20,13.7761424 20,13.5 L20,0.5 C20,0.223857625 19.7761424,0 19.5,0 Z M11.5,0 C11.2238576,0 11,0.223857625 11,0.5 L11,11.5 C11,11.7761424 11.2238576,12 11.5,12 C11.7761424,12 12,11.7761424 12,11.5 L12,0.5 C12,0.223857625 11.7761424,0 11.5,0 Z M4.5,0 C4.22385763,0 4,0.223857625 4,0.5 L4,11.5 C4,11.7761424 4.22385763,12 4.5,12 C4.77614237,12 5,11.7761424 5,11.5 L5,0.5 C5,0.223857625 4.77614237,0 4.5,0 Z M15.5,0 L14.5,0 C14.2238576,0 14,0.223857625 14,0.5 L14,11.5 C14,11.7761424 14.2238576,12 14.5,12 L15.5,12 C15.7761424,12 16,11.7761424 16,11.5 L16,0.5 C16,0.223857625 15.7761424,0 15.5,0 Z M9,0.5 C9,0.223857625 8.77614237,0 8.5,0 L7.5,0 C7.22385763,0 7,0.223857625 7,0.5 L7,11.5 C7,11.7761424 7.22385763,12 7.5,12 L8.5,12 C8.77614237,12 9,11.7761424 9,11.5 L9,0.5 Z" id="Shape"></path>
                </g>
            </g>
        </g>
    </g>
</svg>