<svg xmlns="http://www.w3.org/2000/svg" width="20" height="20" viewBox="0 0 20 20">
    <g fill="none" fill-rule="evenodd">
        <g fill="#222" fill-rule="nonzero">
            <g>
                <g>
                    <g>
                        <path d="M16 0H4C1.79 0 0 1.79 0 4v15.5c0 .276.224.5.5.5.132 0 .258-.055.35-.15l3-3c.574-.56 1.349-.865 2.15-.85h10c2.21 0 4-1.79 4-4V4c0-2.21-1.79-4-4-4zM7 8.5c0 .276-.224.5-.5.5h-1c-.276 0-.5-.224-.5-.5v-1c0-.276.224-.5.5-.5h1c.276 0 .5.224.5.5v1zm4 0c0 .276-.224.5-.5.5h-1c-.276 0-.5-.224-.5-.5v-1c0-.276.224-.5.5-.5h1c.276 0 .5.224.5.5v1zm4 0c0 .276-.224.5-.5.5h-1c-.276 0-.5-.224-.5-.5v-1c0-.276.224-.5.5-.5h1c.276 0 .5.224.5.5v1z" transform="translate(-651 -589) translate(284 242) translate(340 329) translate(27 18)"/>
                    </g>
                </g>
            </g>
        </g>
    </g>
</svg>
