<svg xmlns="http://www.w3.org/2000/svg" width="14" height="15" viewBox="0 0 14 15">
    <g fill="none" fill-rule="evenodd">
        <g fill="#FFB930">
            <g>
                <g>
                    <g>
                        <path d="M8 12l-3.806 2c-.244.13-.546.035-.675-.21-.051-.097-.069-.208-.05-.316l.682-3.979c.028-.162-.026-.328-.143-.442L1.117 6.235c-.198-.193-.202-.51-.009-.707.077-.079.177-.13.286-.146l3.995-.58c.163-.024.303-.126.376-.274L7.552.908c.122-.247.422-.349.67-.227.098.05.178.129.226.227l1.787 3.62c.073.148.213.25.376.274l3.995.58c.273.04.462.294.423.567-.016.109-.067.21-.146.286l-2.89 2.818c-.118.114-.172.28-.144.442l.682 3.979c.047.272-.136.53-.408.577-.109.019-.22 0-.317-.05L8 12z" transform="translate(-287 -299) translate(284 242) translate(2 53) translate(0 4)"/>
                    </g>
                </g>
            </g>
        </g>
    </g>
</svg>
